<?xml version="1.0" standalone="no"?>
<!DOCTYPE svg PUBLIC "-//W3C//DTD SVG 20010904//EN"
 "http://www.w3.org/TR/2001/REC-SVG-20010904/DTD/svg10.dtd">
<svg version="1.0" xmlns="http://www.w3.org/2000/svg"
 width="700.000000pt" height="700.000000pt" viewBox="0 0 700.000000 700.000000"
 preserveAspectRatio="xMidYMid meet">
<metadata>
Created by potrace 1.14, written by Peter Selinger 2001-2017
</metadata>
<g transform="translate(0.000000,700.000000) scale(0.100000,-0.100000)"
fill="#000000" stroke="none">
<path d="M3298 6995 c-2 -1 -46 -5 -99 -9 -53 -4 -104 -8 -115 -10 -10 -2 -46
-7 -79 -11 -32 -4 -68 -9 -80 -11 -11 -2 -45 -8 -75 -14 -546 -100 -1104 -363
-1539 -725 -20 -17 -49 -41 -66 -54 -44 -36 -324 -319 -362 -366 -265 -326
-427 -590 -567 -919 -47 -109 -146 -394 -166 -473 -5 -24 -15 -62 -21 -85 -19
-76 -56 -262 -64 -328 -3 -25 -8 -52 -10 -60 -2 -8 -6 -44 -10 -80 -3 -36 -8
-90 -11 -120 -3 -30 -7 -157 -8 -282 -3 -213 -2 -227 16 -231 13 -4 18 -15 19
-39 0 -18 2 -40 3 -48 2 -8 6 -38 9 -65 10 -78 19 -119 29 -126 5 -3 24 -3 41
0 29 6 32 11 32 42 -1 18 -4 59 -9 89 -4 30 -11 78 -15 105 -4 31 -12 49 -19
48 -11 -3 -14 20 -14 122 0 61 0 63 27 57 22 -4 25 -9 25 -48 l0 -43 47 3 47
3 2 99 c3 119 12 300 19 363 12 111 14 129 20 181 35 289 182 767 303 984 25
45 67 123 93 173 60 115 190 306 294 432 11 13 37 44 59 70 21 25 95 101 165
169 418 406 862 666 1396 816 50 13 101 27 115 30 14 2 68 14 120 25 52 11
118 23 145 26 56 7 67 9 145 25 56 11 318 14 470 6 189 -11 284 -21 300 -31 3
-2 29 -7 56 -11 27 -3 56 -8 64 -9 95 -20 174 -38 215 -49 141 -40 199 -59
295 -97 58 -22 119 -44 135 -49 53 -17 316 -154 423 -220 162 -102 376 -267
506 -391 65 -63 124 -115 131 -117 14 -3 34 -28 166 -202 225 -296 409 -618
495 -865 35 -98 110 -355 119 -405 10 -55 14 -70 19 -79 4 -5 2 -11 -3 -13 -6
-2 -6 -21 -1 -48 5 -25 11 -65 14 -90 4 -25 9 -56 11 -70 4 -23 10 -78 21
-200 6 -68 6 -387 -1 -455 -15 -167 -19 -198 -31 -265 -2 -14 -7 -52 -10 -85
-14 -142 -154 -623 -188 -650 -8 -6 -35 -57 -61 -115 -176 -384 -469 -770
-790 -1043 -92 -78 -103 -87 -147 -121 -44 -33 -45 -41 -14 -80 l23 -28 64 46
c35 25 69 49 75 54 6 5 33 26 60 45 27 20 60 48 73 62 13 14 28 25 33 25 6 0
-3 -12 -19 -27 -184 -172 -416 -342 -638 -468 -55 -31 -109 -67 -120 -80 -19
-23 -125 -77 -208 -106 -20 -7 -37 -19 -37 -25 0 -7 -9 -15 -19 -19 -12 -3
-18 -12 -15 -20 5 -13 -59 -37 -246 -89 -103 -29 -305 -70 -407 -82 -18 -2
-50 -6 -70 -9 -117 -14 -241 -19 -430 -19 -117 0 -214 -3 -214 -8 -1 -4 -2
-14 -3 -20 0 -8 -16 -13 -38 -14 -21 -1 -36 2 -33 6 8 13 15 100 8 98 -8 -2
-121 11 -158 18 -11 2 -33 6 -50 8 -132 18 -470 108 -580 155 -11 5 -67 28
-125 52 -130 54 -323 152 -444 227 -101 62 -309 211 -371 266 l-40 35 -27 -26
c-16 -15 -28 -32 -28 -39 0 -20 308 -260 389 -304 13 -6 21 -14 18 -16 -9 -9
-84 39 -227 145 -163 120 -225 175 -405 355 -210 211 -314 345 -539 693 -37
57 -177 321 -189 356 -1 5 -21 1 -44 -9 l-41 -18 14 -40 c26 -72 158 -328 229
-441 361 -577 837 -1000 1468 -1304 348 -168 597 -253 777 -266 35 -3 89 -9
120 -15 30 -5 73 -12 95 -15 22 -3 54 -7 70 -10 48 -7 194 -17 272 -19 64 -1
73 -3 82 -23 15 -32 48 -38 206 -38 183 0 266 8 470 46 709 130 1340 461 1851
973 473 474 781 1032 923 1671 23 102 29 135 36 185 3 19 8 45 10 57 3 12 8
46 11 75 3 29 7 64 10 78 23 134 23 672 0 785 -2 11 -7 52 -11 90 -5 56 -38
249 -59 350 -74 354 -208 685 -405 1003 -65 105 -226 331 -250 352 -3 3 -26
30 -51 60 -150 185 -437 455 -620 583 -83 58 -283 188 -325 212 -293 162 -492
246 -830 348 -67 20 -317 74 -380 82 -27 4 -57 8 -65 10 -8 2 -46 7 -85 11
-38 3 -81 8 -95 10 -29 5 -477 13 -482 9z m-2338 -1445 c0 -5 -2 -10 -4 -10
-3 0 -8 5 -11 10 -3 6 -1 10 4 10 6 0 11 -4 11 -10z m1850 -5314 c19 -3 58
-10 85 -15 62 -13 101 -18 187 -27 37 -4 65 -11 62 -15 -3 -5 -8 -7 -12 -5 -4
2 -51 9 -106 16 -54 6 -108 14 -120 16 -11 2 -45 6 -74 9 -58 5 -72 10 -72 26
0 6 3 8 8 6 4 -3 23 -8 42 -11z"/>
<path d="M4429 5846 c-2 -2 -51 -6 -109 -10 -58 -3 -114 -8 -125 -10 -12 -2
-52 -7 -90 -11 -408 -38 -1120 -204 -1659 -386 -704 -238 -1107 -493 -1270
-801 -80 -152 -103 -303 -66 -437 75 -269 308 -487 979 -913 112 -72 258 -165
324 -209 133 -87 131 -76 27 -112 -276 -95 -658 -260 -854 -369 -50 -28 -100
-56 -111 -62 -54 -30 -197 -129 -255 -177 -200 -166 -286 -306 -284 -466 0
-73 4 -89 36 -155 40 -80 112 -162 200 -226 31 -23 60 -42 63 -42 3 0 22 -10
43 -23 136 -84 456 -181 672 -203 36 -3 68 -8 71 -10 13 -7 249 -18 404 -18
150 0 315 8 395 18 150 20 187 26 265 41 109 22 113 23 227 55 188 54 330 117
463 206 270 181 364 398 301 692 -11 51 -74 171 -127 243 -88 119 -236 262
-388 375 -45 34 -49 39 -32 46 20 7 578 139 646 153 35 7 308 65 375 80 36 8
76 17 90 19 14 3 135 27 270 55 135 27 260 53 278 56 18 3 64 12 102 20 38 8
84 17 102 20 18 3 56 10 83 15 28 5 64 12 80 15 17 3 68 12 115 20 47 8 103
17 125 20 181 27 284 92 287 180 1 29 -6 43 -36 74 -59 61 -110 76 -251 76
-66 0 -138 -4 -160 -8 -22 -4 -103 -19 -180 -32 -77 -14 -153 -28 -170 -31
-16 -3 -91 -16 -165 -30 -74 -13 -142 -26 -150 -29 -8 -2 -35 -7 -60 -10 -24
-4 -47 -8 -50 -10 -3 -2 -23 -6 -45 -9 -22 -4 -150 -29 -286 -56 -135 -27
-256 -51 -270 -54 -42 -8 -312 -64 -359 -75 -42 -9 -56 -12 -127 -27 -16 -3
-98 -21 -183 -40 -85 -20 -166 -37 -180 -40 -14 -3 -52 -12 -85 -20 -33 -9
-98 -24 -145 -34 l-84 -19 -81 53 c-44 29 -188 119 -320 201 -486 301 -642
411 -793 564 -148 149 -198 294 -152 438 76 232 511 498 1190 726 211 71 475
146 625 177 22 4 84 17 137 29 80 17 249 47 368 66 33 5 93 13 155 20 28 4 61
8 75 10 14 2 59 6 100 10 41 3 98 8 125 10 72 6 364 6 405 -1 230 -35 292 -74
277 -170 -14 -85 -110 -161 -241 -189 -54 -12 -119 -39 -153 -64 -97 -71 -88
-183 20 -245 85 -48 166 -60 290 -41 251 38 521 199 611 365 30 56 56 165 50
210 -2 17 -6 43 -8 59 -11 80 -81 184 -170 251 -84 63 -245 134 -350 154 -11
2 -32 7 -46 10 -39 9 -81 16 -130 22 -25 3 -58 8 -75 11 -35 6 -570 15 -576 9z
m-1371 -3220 c221 -173 351 -314 407 -440 31 -71 34 -170 6 -231 -71 -158
-448 -308 -861 -342 -172 -14 -547 -7 -601 11 -8 3 -30 7 -49 10 -252 38 -440
152 -440 266 0 193 397 436 1195 730 77 28 156 58 175 65 19 8 41 14 48 14 8
1 62 -37 120 -83z"/>
<path d="M1822 858 c-15 -23 -18 -36 -11 -45 25 -30 345 -197 360 -188 9 6 33
75 27 79 -1 2 -46 25 -98 52 -52 26 -128 67 -168 91 -41 24 -77 43 -82 43 -4
0 -17 -14 -28 -32z"/>
<path d="M4600 621 c-19 -11 -142 -53 -236 -80 l-72 -21 10 -40 c8 -32 15 -40
33 -40 51 0 420 121 408 134 -7 7 -70 36 -78 36 -1 0 -1 -13 1 -30 5 -40 -2
-38 -26 10 -11 22 -21 40 -23 40 -1 0 -9 -5 -17 -9z"/>
<path d="M3543 422 c-68 -1 -123 -4 -124 -5 0 -1 -2 -21 -5 -43 -5 -41 -5 -42
28 -47 39 -6 216 0 228 8 7 4 3 90 -4 90 0 0 -56 -1 -123 -3z"/>
</g>
</svg>
